<svg width="24" height="24" viewBox="0 0 24 24" fill="none" xmlns="http://www.w3.org/2000/svg">
<g id="Frame 7">
<path class="myPlayerIcon" d="M10.6688 23.7755C6.86733 21.8222 0.318146 17.6388 0.318146 12C0.318146 6.36121 6.86734 2.1778 10.6688 0.224511C11.92 -0.418399 13.3181 0.516964 13.3181 1.92369V22.0763C13.3181 23.483 11.92 24.4184 10.6688 23.7755Z" fill="#D9D9D9"/>
<path class="myPlayerIcon" fill-rule="evenodd" clip-rule="evenodd" d="M14.9747 8.33833C15.3652 7.94781 15.9984 7.94781 16.3889 8.33833L22.8889 14.8383C23.2794 15.2289 23.2794 15.862 22.8889 16.2525C22.4984 16.6431 21.8652 16.6431 21.4747 16.2525L14.9747 9.75255C14.5842 9.36202 14.5842 8.72886 14.9747 8.33833Z" fill="#D9D9D9"/>
<path class="myPlayerIcon" fill-rule="evenodd" clip-rule="evenodd" d="M22.8889 8.33833C22.4984 7.94781 21.8652 7.94781 21.4747 8.33833L14.9747 14.8383C14.5842 15.2289 14.5842 15.862 14.9747 16.2525C15.3652 16.6431 15.9984 16.6431 16.3889 16.2525L22.8889 9.75255C23.2794 9.36202 23.2794 8.72886 22.8889 8.33833Z" fill="#D9D9D9"/>
</g>
</svg>
