<svg width="23" height="24" viewBox="0 0 23 24" fill="none" xmlns="http://www.w3.org/2000/svg">
<g id="Frame 6">
<path class="myPlayerIcon" d="M10.3158 23.7051C6.52359 21.7556 0 17.5851 0 11.9649C0 6.34478 6.52359 2.1743 10.3158 0.224763C11.5669 -0.418407 12.9649 0.516967 12.9649 1.92369V22.0062C12.9649 23.4129 11.5669 24.3483 10.3158 23.7051Z" fill="#D9D9D9"/>
<path class="myPlayerIcon" fill-rule="evenodd" clip-rule="evenodd" d="M18.151 5.36467C18.5415 4.97415 19.1747 4.97415 19.5652 5.36467C21.4703 7.26982 22.6465 9.56154 22.7304 12.0789C22.8144 14.5992 21.7987 17.1946 19.6107 19.6952C19.247 20.1109 18.6152 20.153 18.1996 19.7893C17.7839 19.4256 17.7418 18.7939 18.1055 18.3782C20.0426 16.1644 20.7949 14.0452 20.7315 12.1456C20.6681 10.2431 19.7817 8.40963 18.151 6.77888C17.7604 6.38836 17.7604 5.75519 18.151 5.36467Z" fill="#D9D9D9"/>
<path class="myPlayerIcon" fill-rule="evenodd" clip-rule="evenodd" d="M14.6527 8.86484C15.063 8.4951 15.6953 8.52794 16.0651 8.9382C16.9204 9.88727 17.4602 11.0439 17.4987 12.3233C17.5372 13.6047 17.0696 14.9 16.1074 16.12C15.7655 16.5537 15.1367 16.628 14.703 16.2861C14.2693 15.9441 14.195 15.3153 14.537 14.8816C15.2648 13.9587 15.5214 13.111 15.4996 12.3834C15.4776 11.6538 15.1725 10.9353 14.5794 10.2771C14.2096 9.86689 14.2425 9.23458 14.6527 8.86484Z" fill="#D9D9D9"/>
</g>
</svg>
